# xmcd
#
# Track frame offsets:
#	150
#	12705
#	24659
#	38280
#	52238
#	66106
#	80169
#	92880
#	111058
#	125915
#	148161
#	166320
#	179222
#
# Disc length: 2589 seconds
#
# Revision: 1
# Processed by: cddbd v1.5.1PL0 Copyright (c) Steve Scherf et al.
# Submitted via: audiograbber 1.83.01
#
DISCID=c30a1b0d
DTITLE=Wild Blue Yonder - Bolt Out Of The Blue
DYEAR=2005
DGENRE=Bluegrass
TTITLE0=Breaking New Ground
TTITLE1=Little White Washed Chimney
TTITLE2=I Am Weary, Let Me Rest
TTITLE3=The Cuckoo Bird
TTITLE4=We Can Build It Bright
TTITLE5=He Is By My Side
TTITLE6=Molly and Tenbrooks
TTITLE7=It's Only Love
TTITLE8=Fly Away
TTITLE9=The Possum Crawls Tonight
TTITLE10=Misery's Road
TTITLE11=Take Me In Your Lifeboat
TTITLE12=Bolt Out Of The Blue
EXTD=
EXTT0=
EXTT1=
EXTT2=
EXTT3=
EXTT4=
EXTT5=
EXTT6=
EXTT7=
EXTT8=
EXTT9=
EXTT10=
EXTT11=
EXTT12=
PLAYORDER=
